<svg width="181" height="30" viewBox="0 0 181 30" fill="none" xmlns="http://www.w3.org/2000/svg">
<path d="M22.4023 20.8398C22.4023 21.9987 22.181 23.0859 21.7383 24.1016C21.2956 25.1172 20.6901 26.0091 19.9219 26.7773C19.1667 27.5326 18.2812 28.1315 17.2656 28.5742C16.25 29.0169 15.1628 29.2383 14.0039 29.2383H0V1.23047H14.0039C15.1628 1.23047 16.25 1.45182 17.2656 1.89453C18.2812 2.33724 19.1667 2.94271 19.9219 3.71094C20.6901 4.46615 21.2956 5.35156 21.7383 6.36719C22.181 7.38281 22.4023 8.47005 22.4023 9.62891C22.4023 10.1497 22.3307 10.6836 22.1875 11.2305C22.0443 11.7773 21.8424 12.3047 21.582 12.8125C21.3216 13.3203 21.0091 13.7826 20.6445 14.1992C20.2799 14.6159 19.8763 14.9609 19.4336 15.2344C19.8893 15.4818 20.2995 15.8203 20.6641 16.25C21.0286 16.6667 21.3411 17.1289 21.6016 17.6367C21.862 18.1445 22.0573 18.6784 22.1875 19.2383C22.3307 19.7852 22.4023 20.319 22.4023 20.8398ZM5.60547 23.6328H14.0039C14.3945 23.6328 14.7591 23.5612 15.0977 23.418C15.4362 23.2747 15.7292 23.0794 15.9766 22.832C16.237 22.5716 16.4388 22.2721 16.582 21.9336C16.7253 21.5951 16.7969 21.2305 16.7969 20.8398C16.7969 20.4492 16.7253 20.0846 16.582 19.7461C16.4388 19.4076 16.237 19.1146 15.9766 18.8672C15.7292 18.6068 15.4362 18.4049 15.0977 18.2617C14.7591 18.1185 14.3945 18.0469 14.0039 18.0469H5.60547V23.6328ZM5.60547 12.4414H14.0039C14.3945 12.4414 14.7591 12.3698 15.0977 12.2266C15.4362 12.0833 15.7292 11.888 15.9766 11.6406C16.237 11.3802 16.4388 11.0807 16.582 10.7422C16.7253 10.3906 16.7969 10.0195 16.7969 9.62891C16.7969 9.23828 16.7253 8.8737 16.582 8.53516C16.4388 8.19661 16.237 7.90365 15.9766 7.65625C15.7292 7.39583 15.4362 7.19401 15.0977 7.05078C14.7591 6.90755 14.3945 6.83594 14.0039 6.83594H5.60547V12.4414Z" fill="#FBBF24"/>
<path d="M34.3945 24.1211C34.6029 24.1862 34.8112 24.2318 35.0195 24.2578C35.2279 24.2708 35.4362 24.2773 35.6445 24.2773C36.1654 24.2773 36.6667 24.2057 37.1484 24.0625C37.6302 23.9193 38.0794 23.7174 38.4961 23.457C38.9258 23.1836 39.3034 22.8581 39.6289 22.4805C39.9674 22.0898 40.2409 21.6602 40.4492 21.1914L44.3555 25.1172C43.8607 25.8203 43.2878 26.4518 42.6367 27.0117C41.9987 27.5716 41.3021 28.0469 40.5469 28.4375C39.8047 28.8281 39.0169 29.1211 38.1836 29.3164C37.3633 29.5247 36.5169 29.6289 35.6445 29.6289C34.1732 29.6289 32.7865 29.3555 31.4844 28.8086C30.1953 28.2617 29.0625 27.5 28.0859 26.5234C27.1224 25.5469 26.3607 24.388 25.8008 23.0469C25.2409 21.6927 24.9609 20.2083 24.9609 18.5938C24.9609 16.9401 25.2409 15.4297 25.8008 14.0625C26.3607 12.6953 27.1224 11.5299 28.0859 10.5664C29.0625 9.60286 30.1953 8.85417 31.4844 8.32031C32.7865 7.78646 34.1732 7.51953 35.6445 7.51953C36.5169 7.51953 37.3698 7.6237 38.2031 7.83203C39.0365 8.04036 39.8242 8.33984 40.5664 8.73047C41.3216 9.12109 42.0247 9.60286 42.6758 10.1758C43.3268 10.7357 43.8997 11.3672 44.3945 12.0703L34.3945 24.1211ZM37.1289 13.125C36.8815 13.0339 36.6341 12.9753 36.3867 12.9492C36.1523 12.9232 35.9049 12.9102 35.6445 12.9102C34.9154 12.9102 34.2253 13.0469 33.5742 13.3203C32.9362 13.5807 32.3763 13.9583 31.8945 14.4531C31.4258 14.9479 31.0547 15.5469 30.7812 16.25C30.5078 16.9401 30.3711 17.7214 30.3711 18.5938C30.3711 18.7891 30.3776 19.0104 30.3906 19.2578C30.4167 19.5052 30.4492 19.7591 30.4883 20.0195C30.5404 20.2669 30.599 20.5078 30.6641 20.7422C30.7292 20.9766 30.8138 21.1849 30.918 21.3672L37.1289 13.125Z" fill="#FBBF24"/>
<path d="M52.4219 29.2383H47.0898V8.32031H48.3789L50.1367 10.3516C50.9961 9.57031 51.9661 8.97135 53.0469 8.55469C54.1406 8.125 55.2799 7.91016 56.4648 7.91016C57.7409 7.91016 58.9453 8.15755 60.0781 8.65234C61.2109 9.13411 62.2005 9.80469 63.0469 10.6641C63.8932 11.5104 64.5573 12.5065 65.0391 13.6523C65.5339 14.7852 65.7812 15.9961 65.7812 17.2852V29.2383H60.4492V17.2852C60.4492 16.7383 60.3451 16.224 60.1367 15.7422C59.9284 15.2474 59.6419 14.8177 59.2773 14.4531C58.9128 14.0885 58.4896 13.8021 58.0078 13.5938C57.526 13.3854 57.0117 13.2812 56.4648 13.2812C55.9049 13.2812 55.3776 13.3854 54.8828 13.5938C54.388 13.8021 53.9583 14.0885 53.5938 14.4531C53.2292 14.8177 52.9427 15.2474 52.7344 15.7422C52.526 16.224 52.4219 16.7383 52.4219 17.2852V29.2383Z" fill="#FBBF24"/>
<path d="M74.9219 29.2383H69.5898V8.32031H70.8789L72.6367 10.3516C73.4961 9.57031 74.4661 8.97135 75.5469 8.55469C76.6406 8.125 77.7799 7.91016 78.9648 7.91016C80.2409 7.91016 81.4453 8.15755 82.5781 8.65234C83.7109 9.13411 84.7005 9.80469 85.5469 10.6641C86.3932 11.5104 87.0573 12.5065 87.5391 13.6523C88.0339 14.7852 88.2812 15.9961 88.2812 17.2852V29.2383H82.9492V17.2852C82.9492 16.7383 82.8451 16.224 82.6367 15.7422C82.4284 15.2474 82.1419 14.8177 81.7773 14.4531C81.4128 14.0885 80.9896 13.8021 80.5078 13.5938C80.026 13.3854 79.5117 13.2812 78.9648 13.2812C78.4049 13.2812 77.8776 13.3854 77.3828 13.5938C76.888 13.8021 76.4583 14.0885 76.0938 14.4531C75.7292 14.8177 75.4427 15.2474 75.2344 15.7422C75.026 16.224 74.9219 16.7383 74.9219 17.2852V29.2383Z" fill="#FBBF24"/>
<path d="M98.2617 6.83594V18.0469H103.867C104.635 18.0469 105.358 17.9036 106.035 17.6172C106.712 17.3177 107.305 16.9141 107.812 16.4062C108.32 15.8984 108.717 15.306 109.004 14.6289C109.303 13.9388 109.453 13.2096 109.453 12.4414C109.453 11.6732 109.303 10.9505 109.004 10.2734C108.717 9.58333 108.32 8.98438 107.812 8.47656C107.305 7.96875 106.712 7.57161 106.035 7.28516C105.358 6.98568 104.635 6.83594 103.867 6.83594H98.2617ZM98.2617 29.2383H92.6562V1.23047H103.867C104.896 1.23047 105.885 1.36719 106.836 1.64062C107.786 1.90104 108.672 2.27865 109.492 2.77344C110.326 3.25521 111.081 3.84115 111.758 4.53125C112.448 5.20833 113.034 5.96354 113.516 6.79688C114.01 7.63021 114.388 8.52214 114.648 9.47266C114.922 10.4232 115.059 11.4128 115.059 12.4414C115.059 13.9779 114.766 15.4297 114.18 16.7969C113.594 18.151 112.793 19.3359 111.777 20.3516C110.762 21.3672 109.57 22.168 108.203 22.7539C106.849 23.3398 105.404 23.6328 103.867 23.6328H98.2617V29.2383Z" fill="#FBBF24"/>
<path d="M138.008 18.5938C138.008 20.1562 137.728 21.6146 137.168 22.9688C136.608 24.3099 135.846 25.4753 134.883 26.4648C133.919 27.4414 132.786 28.2161 131.484 28.7891C130.195 29.349 128.809 29.6289 127.324 29.6289C125.853 29.6289 124.466 29.349 123.164 28.7891C121.875 28.2161 120.742 27.4414 119.766 26.4648C118.802 25.4753 118.04 24.3099 117.48 22.9688C116.921 21.6146 116.641 20.1562 116.641 18.5938C116.641 17.0052 116.921 15.5339 117.48 14.1797C118.04 12.8255 118.802 11.6602 119.766 10.6836C120.742 9.69401 121.875 8.91927 123.164 8.35938C124.466 7.79948 125.853 7.51953 127.324 7.51953C128.809 7.51953 130.195 7.78646 131.484 8.32031C132.786 8.84115 133.919 9.58984 134.883 10.5664C135.846 11.5299 136.608 12.6953 137.168 14.0625C137.728 15.4167 138.008 16.9271 138.008 18.5938ZM132.637 18.5938C132.637 17.7344 132.493 16.9596 132.207 16.2695C131.934 15.5664 131.556 14.9674 131.074 14.4727C130.592 13.9648 130.026 13.5807 129.375 13.3203C128.737 13.0469 128.053 12.9102 127.324 12.9102C126.595 12.9102 125.905 13.0469 125.254 13.3203C124.616 13.5807 124.056 13.9648 123.574 14.4727C123.105 14.9674 122.734 15.5664 122.461 16.2695C122.188 16.9596 122.051 17.7344 122.051 18.5938C122.051 19.401 122.188 20.1497 122.461 20.8398C122.734 21.5299 123.105 22.1289 123.574 22.6367C124.056 23.1445 124.616 23.5482 125.254 23.8477C125.905 24.1341 126.595 24.2773 127.324 24.2773C128.053 24.2773 128.737 24.1406 129.375 23.8672C130.026 23.5938 130.592 23.2096 131.074 22.7148C131.556 22.2201 131.934 21.6211 132.207 20.918C132.493 20.2148 132.637 19.4401 132.637 18.5938Z" fill="#FBBF24"/>
<path d="M146.328 29.2383H140.957V0H146.328V18.4375L154.277 8.35938H160.41L153.477 17.0703L160.41 29.2383H154.277L150.039 21.6406L146.328 26.5625V29.2383Z" fill="#FBBF24"/>
<path d="M170.176 24.1211C170.384 24.1862 170.592 24.2318 170.801 24.2578C171.009 24.2708 171.217 24.2773 171.426 24.2773C171.947 24.2773 172.448 24.2057 172.93 24.0625C173.411 23.9193 173.861 23.7174 174.277 23.457C174.707 23.1836 175.085 22.8581 175.41 22.4805C175.749 22.0898 176.022 21.6602 176.23 21.1914L180.137 25.1172C179.642 25.8203 179.069 26.4518 178.418 27.0117C177.78 27.5716 177.083 28.0469 176.328 28.4375C175.586 28.8281 174.798 29.1211 173.965 29.3164C173.145 29.5247 172.298 29.6289 171.426 29.6289C169.954 29.6289 168.568 29.3555 167.266 28.8086C165.977 28.2617 164.844 27.5 163.867 26.5234C162.904 25.5469 162.142 24.388 161.582 23.0469C161.022 21.6927 160.742 20.2083 160.742 18.5938C160.742 16.9401 161.022 15.4297 161.582 14.0625C162.142 12.6953 162.904 11.5299 163.867 10.5664C164.844 9.60286 165.977 8.85417 167.266 8.32031C168.568 7.78646 169.954 7.51953 171.426 7.51953C172.298 7.51953 173.151 7.6237 173.984 7.83203C174.818 8.04036 175.605 8.33984 176.348 8.73047C177.103 9.12109 177.806 9.60286 178.457 10.1758C179.108 10.7357 179.681 11.3672 180.176 12.0703L170.176 24.1211ZM172.91 13.125C172.663 13.0339 172.415 12.9753 172.168 12.9492C171.934 12.9232 171.686 12.9102 171.426 12.9102C170.697 12.9102 170.007 13.0469 169.355 13.3203C168.717 13.5807 168.158 13.9583 167.676 14.4531C167.207 14.9479 166.836 15.5469 166.562 16.25C166.289 16.9401 166.152 17.7214 166.152 18.5938C166.152 18.7891 166.159 19.0104 166.172 19.2578C166.198 19.5052 166.23 19.7591 166.27 20.0195C166.322 20.2669 166.38 20.5078 166.445 20.7422C166.51 20.9766 166.595 21.1849 166.699 21.3672L172.91 13.125Z" fill="#FBBF24"/>
</svg>
