<svg width="132" height="120" viewBox="0 0 132 120" fill="none" xmlns="http://www.w3.org/2000/svg">
<g clip-path="url(#clip0)">
<path d="M51.844 30.9063C78.5236 12.9431 113.899 17.9795 134.315 41.4889L109.012 58.5256C98.1209 48.5686 81.3788 46.9924 68.5089 55.6576C55.639 64.3229 50.8019 80.4283 55.9309 94.2648L30.6275 111.302C16.5245 83.5415 25.1644 48.8696 51.844 30.9063Z" fill="white"/>
<path d="M117.57 71.2358L142.873 54.1991C156.976 81.9591 148.336 116.631 121.657 134.594C94.9771 152.558 59.6017 147.521 39.1852 124.012L64.4887 106.975C75.3797 116.932 92.1219 118.508 104.992 109.843C117.862 101.178 122.699 85.0723 117.57 71.2358Z" fill="white"/>
<path d="M98.2356 99.8086C107.727 93.418 110.28 80.6 103.937 71.1789C97.5933 61.7578 84.7566 59.3013 75.265 65.692C65.7734 72.0826 63.2209 84.9006 69.5641 94.3217C75.9073 103.743 88.744 106.199 98.2356 99.8086Z" fill="white"/>
</g>
<defs>
<clipPath id="clip0">
<rect width="125" height="125" fill="white" transform="translate(0 65.8127) rotate(-33.9522)"/>
</clipPath>
</defs>
</svg>
