<svg width="174" height="174" viewBox="0 0 174 174" fill="none" xmlns="http://www.w3.org/2000/svg">
<g clip-path="url(#clip0)">
<path d="M51.844 34.9064C78.5236 16.9431 113.899 21.9796 134.315 45.4889L109.012 62.5256C98.1209 52.5686 81.3788 50.9924 68.5089 59.6576C55.639 68.3229 50.8019 84.4283 55.9309 98.2649L30.6275 115.302C16.5245 87.5415 25.1644 52.8696 51.844 34.9064Z" className="text-gray-200 dark:text-gray-600"/>
<path d="M117.57 75.2358L142.873 58.1991C156.976 85.9592 148.336 120.631 121.657 138.594C94.9771 156.558 59.6017 151.521 39.1852 128.012L64.4887 110.975C75.3797 120.932 92.1218 122.508 104.992 113.843C117.862 105.178 122.699 89.0723 117.57 75.2358Z" className="text-gray-200 dark:text-gray-600"/>
<path d="M98.2356 103.809C107.727 97.418 110.28 84.6 103.937 75.1789C97.5933 65.7578 84.7566 63.3014 75.265 69.692C65.7734 76.0827 63.2209 88.9007 69.5641 98.3217C75.9073 107.743 88.744 110.199 98.2356 103.809Z" className="text-gray-200 dark:text-gray-600"/>
</g>
<defs>
<clipPath id="clip0">
<rect width="125" height="125" fill="white" transform="translate(0 69.8127) rotate(-33.9522)"/>
</clipPath>
</defs>
</svg>
